<?xml version="1.0" encoding="utf-8"?>
<!-- Generator: Adobe Illustrator 12.0.0, SVG Export Plug-In  -->
<!DOCTYPE svg PUBLIC "-//W3C//DTD SVG 1.1//EN" "http://www.w3.org/Graphics/SVG/1.1/DTD/svg11.dtd" [
	<!ENTITY ns_flows "http://ns.adobe.com/Flows/1.0/">
	<!ENTITY ns_svg "http://www.w3.org/2000/svg">
	<!ENTITY ns_xlink "http://www.w3.org/1999/xlink">
]>
<svg  version="1.1" xmlns="&ns_svg;" xmlns:xlink="&ns_xlink;" xmlns:a="http://ns.adobe.com/AdobeSVGViewerExtensions/3.0/"
	 width="252" height="90" viewBox="0 0 252 90" enable-background="new 0 0 252 90" xml:space="preserve">
<defs>
</defs>
<rect width="252" height="90"/>
<path fill="#FFFFFF" d="M66.1269531,39.9428711c0,2.5043945-1.5517578,4.3652344-4.6547852,5.5864258
	c-2.4101563,0.9511719-5.3491211,1.4316406-8.8193359,1.4316406H38.4282227c-3.7299805,0-6.8623047-0.4335938-9.4072266-1.2910156
	c-3.4980469-1.1757813-5.2519531-3.0527344-5.2519531-5.6347656V26.2250977c0-2.480957,1.7832031-4.3129883,5.3588867-5.5019531
	c2.8232422-0.8891602,5.9360352-1.3378906,9.3481445-1.3378906h5.6479492c1.5229492,0,2.2841797,0.6796875,2.2841797,2.0405273
	c0,1.3671875-0.7612305,2.0551758-2.2841797,2.0551758h-1.7250977c-0.1640625,0-0.2597656-0.0058594-0.2797852-0.0229492
	c-0.4331055-0.0141602-0.8193359-0.0209961-1.15625-0.0288086c-0.3378906-0.0083008-0.6166992-0.0161133-0.8188477-0.0161133
	c-6.7368164,0-10.1108398,0.934082-10.1108398,2.8027344v13.7973633c0,1.8706055,2.8237305,2.8071289,8.4716797,2.8071289
	h14.1582031c1.3491211,0,2.7949219-0.2011719,4.3178711-0.6113281c1.9179688-0.5161133,2.8808594-1.2050781,2.8808594-2.0859375
	v-2.934082H51.059082c-1.1611328,0-2.1118164-0.9936523-2.1118164-2.2089844c0-1.2167969,0.9506836-2.2109375,2.1118164-2.2109375
	H61.644043c0.5351563-0.0551758,1.3017578-0.0488281,2.2861328-0.0488281c1.4648438,0,2.1967773,0.5878906,2.1967773,1.7700195
	V39.9428711"/>
<path fill="#FFFFFF" d="M103.0898438,40.0820313v-8.3569336c0-1.7172852-2.4287109-2.6000977-7.34375-2.6000977H86.03125
	c-1.7929688,0-3.4121094,0.1860352-4.8583984,0.5571289c-2.0239258,0.559082-3.0068359,1.3481445-3.0068359,2.4140625v7.9858398
	c0,1.0209961,1.0410156,1.8110352,3.0649414,2.2749023c1.3881836,0.3242188,3.0073242,0.465332,4.8579102,0.465332h9.6572266
	c1.5610352,0,3.0639648-0.1860352,4.4521484-0.512207C102.1069336,41.8007813,103.0898438,41.0571289,103.0898438,40.0820313
	 M109.1040039,40.0820313c0,2.5078125-1.5039063,4.3178711-4.5688477,5.4335938
	c-2.1391602,0.8828125-5.03125,1.3466797-8.6162109,1.3466797H86.03125c-3.2963867,0-6.2460938-0.4638672-8.90625-1.3466797
	c-3.2958984-1.1616211-4.9150391-2.9726563-4.9150391-5.4335938v-7.9858398c0-2.4140625,1.6191406-4.2700195,4.8579102-5.5229492
	c2.4282227-0.9770508,5.3769531-1.4394531,8.9052734-1.4394531h9.9458008c8.7900391,0,13.1850586,2.2753906,13.1850586,6.918457
	V40.0820313z"/>
<path fill="#FFFFFF" d="M181.1855469,27.3608398c0,1.2070313-0.9257813,1.8110352-2.6601563,1.8110352
	c-0.2314453,0-0.578125,0-1.0410156-0.046875h-1.0996094c-4.5683594,0-6.8242188,0.8828125-6.8242188,2.7402344v13.1855469
	c0,0.8828125-0.4609375,1.4394531-1.2705078,1.671875c-0.3486328,0.09375-1.2148438,0.1396484-2.6025391,0.1396484
	c-1.3886719,0-2.0820313-0.6044922-2.0820313-1.8115234V31.8652344c0-2.8793945,1.7929688-4.7832031,5.4365234-5.8032227
	c2.1972656-0.6518555,5.4931641-0.9301758,9.8896484-0.9301758C180.4355469,25.1328125,181.1855469,25.875,181.1855469,27.3608398"
	/>
<path fill="#FFFFFF" d="M216.1816406,40.0820313v-8.3569336c0-1.7172852-2.4287109-2.6000977-7.3427734-2.6000977h-9.7148438
	c-1.7939453,0-3.4121094,0.1860352-4.8583984,0.5571289c-2.0234375,0.559082-3.0058594,1.3481445-3.0058594,2.4140625v7.9858398
	c0,1.0209961,1.0410156,1.8110352,3.0634766,2.2749023c1.3886719,0.3242188,3.0068359,0.465332,4.8544922,0.465332h9.6601563
	c1.5605469,0,3.0625-0.1860352,4.4511719-0.512207C215.1982422,41.8007813,216.1816406,41.0571289,216.1816406,40.0820313
	 M222.1953125,40.0820313c0,2.5078125-1.5039063,4.3178711-4.5673828,5.4335938
	c-2.1396484,0.8828125-5.0322266,1.3466797-8.6162109,1.3466797h-9.8876953c-3.2978516,0-6.2460938-0.4638672-8.9052734-1.3466797
	c-3.2978516-1.1616211-4.9160156-2.9726563-4.9160156-5.4335938v-7.9858398c0-2.4140625,1.6181641-4.2700195,4.8564453-5.5229492
	c2.4296875-0.9770508,5.3779297-1.4394531,8.9052734-1.4394531h9.9453125c8.7890625,0,13.1855469,2.2753906,13.1855469,6.918457
	V40.0820313z"/>
<path fill="#FFFFFF" d="M151.9570313,29.387207V25.625c0-1.578125-2.7246094-2.4140625-8.1708984-2.4140625h-22.1953125v9.565918
	h22.1953125C149.2324219,32.7768555,151.9570313,31.6152344,151.9570313,29.387207 M158.2158203,29.5722656
	c0,2.7397461-1.7373047,4.7358398-5.1572266,5.9916992c-2.6660156,0.8813477-5.8544922,1.2993164-9.6191406,1.2993164h-21.8486328
	v8.0820313c0,0.8808594-0.4057617,1.4375-1.3330078,1.6699219c-0.2319336,0.09375-1.1586914,0.140625-2.7236328,0.140625
	c-1.4492188,0-2.2021484-0.6035156-2.2021484-1.8105469V20.8891602c0-1.1621094,0.7529297-1.7661133,2.2021484-1.7661133h26.1943359
	c3.5351563,0,6.5488281,0.4179688,9.0390625,1.1621094c3.6523438,1.112793,5.4482422,2.7851563,5.4482422,4.96875V29.5722656
	L158.2158203,29.5722656z"/>
<path fill="#FFFFFF" d="M91.3618164,62.9550781c-0.265625,1.1132813-0.0595703,2.4179688,0.2021484,2.9042969
	c0.262207,0.4833984,1.1181641,0.9160156,1.7680664,0.9160156c0.6669922,0,1.6171875-0.3144531,2.0961914-0.7890625
	c0.480957-0.4746094,1.1450195-1.6113281,1.4389648-2.84375c0.25-1.0371094,0.0629883-2.0234375-0.2041016-2.5039063
	c-0.2680664-0.4775391-1.065918-1.1171875-1.7241211-1.1171875c-0.6259766,0-1.6367188,0.2871094-2.1337891,0.7724609
	C92.3110352,60.7792969,91.6318359,61.8339844,91.3618164,62.9550781 M88.5048828,63.0507813
	c0.4321289-1.7988281,1.5273438-3.2871094,2.6821289-4.2871094c1.1572266-1.0019531,2.6401367-1.203125,4.2729492-1.203125
	c1.675293,0,2.9008789,0.6865234,3.5722656,1.671875c0.6708984,0.9824219,1.0385742,2.3261719,0.612793,4.0986328
	c-0.309082,1.2890625-0.8330078,2.3115234-1.4257813,3.1328125c-0.5932617,0.8242188-1.4082031,1.3427734-2.2661133,1.8017578
	c-0.8598633,0.4589844-1.8808594,0.5634766-2.9990234,0.5634766c-1.1352539,0-2.027832-0.1972656-2.6782227-0.5947266
	c-0.6479492-0.3955078-1.3989258-1.0205078-1.6567383-1.8789063C88.3632813,65.5,88.1958008,64.3398438,88.5048828,63.0507813"/>
<path fill="#FFFFFF" d="M77.0771484,68.5l2.3789063-10.7695313l4.9389648,0.0175781
	c0.105957,0,3.6381836-0.1796875,3.4648438,2.8105469c-0.1240234,2.1757813-1.0795898,2.4199219-2.9980469,3.4306641
	c0.965332,1.6044922,1.2983398,2.46875,2.5742188,4.5117188h-3.2158203
	c-0.3569336-1.0205078-1.8901367-3.9052734-1.8979492-3.9052734l-1.6650391-0.0185547l-0.8452148,3.9384766L77.0771484,68.5
	 M81.1918945,62.6347656h1.894043c1.7573242,0,2.5932617-2.7558594,0.7680664-2.7851563L81.8720703,59.8125L81.1918945,62.6347656z"
	/>
<polygon fill="#FFFFFF" points="70.1318359,57.765625 77.8862305,57.8007813 77.4799805,59.7832031 72.4731445,59.8183594 
	72.019043,61.7285156 76.6831055,61.7460938 76.2480469,63.7988281 71.4780273,63.7988281 70.921875,66.53125 
	75.8691406,66.4453125 75.5698242,68.5332031 67.7172852,68.4453125 "/>
<polygon fill="#FFFFFF" points="58.5039063,57.7304688 61.3320313,57.7480469 60.3710938,61.6738281 64.440918,61.7792969 
	65.3139648,57.765625 68.1220703,57.8007813 65.6708984,68.5 62.8818359,68.515625 63.9511719,63.8144531 59.8808594,63.7792969 
	58.7578125,68.515625 55.9819336,68.5 "/>
<polygon fill="#FFFFFF" points="99.7319336,68.484375 102.3032227,68.484375 103.012207,65.6816406 100.440918,65.6816406 "/>
<rect x="110.0439453" y="53.6484375" fill="#00AEEF" width="23.8408203" height="18.2294922"/>
<rect x="138.8007813" y="53.6484375" fill="#00AEEF" width="23.8417969" height="18.2294922"/>
<rect x="167.7470703" y="53.6464844" fill="#005DAC" width="23.8398438" height="18.2285156"/>
<rect x="197.3027344" y="53.6484375" fill="#FFFFFF" width="23.8417969" height="18.2294922"/>
<path fill="#FFFFFF" d="M46.0629883,63.6035156h1.8461914c-0.0200195-0.6357422,0.4331055-0.9570313,1.3447266-0.953125
	c0.7539063,0.015625,1.175293,0.2578125,1.262207,0.7148438c0,0.5878906,0.0117188,1.140625,0.0239258,1.6914063
	c-0.4047852-0.4736328-1.1591797-0.7460938-2.262207-0.8222656c-1.7446289,0.1640625-2.5869141,0.96875-2.5229492,2.4199219
	c0.0629883,1.2675781,0.9682617,1.9414063,2.7133789,2.0136719c0.9169922,0.0410156,1.6147461-0.2304688,2.105957-0.8457031
	c0.0126953,0.2675781,0.0126953,0.5078125,0.0126953,0.75h1.7011719c0.0131836-1.8398438,0.0131836-3.6660156,0.0131836-5.4941406
	c-0.4282227-0.953125-1.1474609-1.4609375-2.1430664-1.5234375c-0.8769531-0.0244141-1.7412109-0.0244141-2.605957-0.0244141
	C46.4731445,61.8320313,45.9892578,62.5195313,46.0629883,63.6035156"/>
<path fill="#FFFFFF" d="M38.1328125,61.484375h1.75c1.3012695,0,2.3662109,1.0488281,2.3662109,2.3300781v1.4648438h-4.7329102
	c-0.1992188,1.4414063,0.171875,2.140625,1.0908203,2.0996094c0.3359375-0.0195313,0.6918945-0.0195313,1.050293-0.0195313
	c0.6098633,0.0546875,0.8979492-0.2753906,0.8847656-1.0722656H42.25v0.0410156c0,1.28125-1.0649414,2.3300781-2.3657227,2.3300781
	h-1.75c-1.3022461,0-2.3671875-1.0488281-2.3671875-2.3300781v-2.5136719
	C35.7661133,62.5332031,36.8310547,61.484375,38.1328125,61.484375"/>
<path fill="#FFFFFF" d="M27.2661133,58.5585938v9.9345703h5.7626953c1.5634766,0.1044922,2.3583984-0.7753906,2.387207-2.6152344
	c0.0688477-1.2851563-0.4599609-2.125-1.6049805-2.4960938c0.8989258-0.171875,1.3798828-0.9277344,1.4208984-2.2861328
	c-0.0966797-1.6132813-0.987793-2.4677734-2.6757813-2.5761719C30.7709961,58.5253906,28.9882813,58.53125,27.2661133,58.5585938"/>
<path d="M29.1801758,60.2285156v2.5351563c0.9936523-0.0214844,1.9287109-0.0214844,2.8608398-0.0214844
	c0.8100586,0.0136719,1.2001953-0.3925781,1.1928711-1.1933594c-0.0410156-0.7285156-0.3837891-1.1484375-1.027832-1.2792969
	C31.1889648,60.2773438,30.2158203,60.2636719,29.1801758,60.2285156"/>
<path d="M29.1801758,64.1855469v2.7597656c1.0639648-0.0214844,2.0639648-0.0214844,3.0629883-0.0214844
	c0.8676758,0.015625,1.2871094-0.4257813,1.2788086-1.3007813c-0.0439453-0.7929688-0.4111328-1.25-1.1030273-1.3925781
	C31.3330078,64.2363281,30.2900391,64.2226563,29.1801758,64.1855469"/>
<path d="M40.5410156,64.3085938c0.0898438-1.078125-0.3837891-1.59375-1.4399414-1.5634766
	c-1.1738281-0.0078125-1.7021484,0.5205078-1.5849609,1.5859375C38.5239258,64.2890625,39.53125,64.2890625,40.5410156,64.3085938"
	/>
<path d="M50.5400391,66.140625c-0.3427734-0.6064453-1.0952148-0.8105469-2.2587891-0.6035156
	c-0.6450195,0.28125-0.8930664,0.7089844-0.7421875,1.2890625c0.1679688,0.7304688,0.9492188,0.9414063,2.3579102,0.5996094
	C50.4082031,67.2207031,50.6220703,66.796875,50.5400391,66.140625"/>
<path fill="#FFFFFF" d="M225.4023438,44.4082031c1.4023438,0,2.5410156,1.1367188,2.5410156,2.5410156
	c0,1.4023438-1.1386719,2.5410156-2.5410156,2.5410156c-1.4013672,0-2.5410156-1.1386719-2.5410156-2.5410156
	C222.8613281,45.5449219,224.0009766,44.4082031,225.4023438,44.4082031"/>
<path d="M225.4023438,44.7832031c1.1933594,0,2.1660156,0.9707031,2.1660156,2.1660156s-0.9726563,2.1640625-2.1660156,2.1640625
	c-1.1943359,0-2.1640625-0.96875-2.1640625-2.1640625S224.2080078,44.7832031,225.4023438,44.7832031"/>
<path fill="#FFFFFF" d="M224.5390625,48.0058594v-2.4023438h1.0703125c0.2158203,0,0.3789063,0.0195313,0.4882813,0.0634766
	c0.1132813,0.0429688,0.2011719,0.1191406,0.2714844,0.2294922c0.0664063,0.1064453,0.0996094,0.2285156,0.0996094,0.3603516
	c0,0.1708984-0.0546875,0.3144531-0.1660156,0.4326172c-0.109375,0.1171875-0.2832031,0.1884766-0.5146484,0.2226563
	c0.0859375,0.0390625,0.1494141,0.0800781,0.1923828,0.1191406c0.0947266,0.0859375,0.1826172,0.1933594,0.2666016,0.3203125
	l0.4199219,0.6533203h-0.4013672l-0.3183594-0.5019531c-0.0957031-0.1435547-0.171875-0.2539063-0.2304688-0.328125
	c-0.0615234-0.0791016-0.1171875-0.1328125-0.1640625-0.1630859c-0.046875-0.0292969-0.09375-0.0517578-0.1445313-0.0625
	c-0.0361328-0.0058594-0.0957031-0.0097656-0.1796875-0.0097656h-0.3691406v1.0654297h-0.3203125V48.0058594z"/>
<path d="M224.8574219,46.6621094h0.6884766c0.1455078,0,0.2587891-0.0136719,0.3427734-0.0449219
	c0.0820313-0.0292969,0.1455078-0.078125,0.1875-0.1425781c0.0429688-0.0664063,0.0625-0.1396484,0.0625-0.2177734
	c0-0.1123047-0.0390625-0.2070313-0.1230469-0.2783203c-0.0820313-0.0742188-0.2128906-0.1113281-0.3935547-0.1113281h-0.7646484
	V46.6621094"/>
</svg>
