<?xml version="1.0" encoding="utf-8"?>
<!-- Generator: Adobe Illustrator 17.0.0, SVG Export Plug-In . SVG Version: 6.00 Build 0)  -->
<!DOCTYPE svg PUBLIC "-//W3C//DTD SVG 1.1//EN" "http://www.w3.org/Graphics/SVG/1.1/DTD/svg11.dtd">
<svg version="1.1" id="Calque_1" xmlns="http://www.w3.org/2000/svg" xmlns:xlink="http://www.w3.org/1999/xlink" x="0px" y="0px"
	 width="447.2135955" height="223.60679775" viewBox="0 0 743.5 371.75" enable-background="new 0 0 743.5 371.75" xml:space="preserve">
<g>
	<g>
		<g>
			<g>
				<path fill="#FFFFFF" d="M296.633,79.197c0.919,0,1.854-0.15,2.719-0.352l31.185,105.977h0.027
					c3.463,11.824,20.686,20.809,41.414,20.809c20.74,0,37.923-8.982,41.426-20.809h0.015l31.158-105.908
					c0.73,0.15,1.541,0.285,2.382,0.285c6.062,0,10.959-4.897,10.959-10.986c0-6.02-4.884-10.946-10.959-10.946
					c-6.035,0-10.959,4.912-10.959,10.946c0,4.398,2.544,8.132,6.251,9.889l-36.126,77.427l5.792-104.325c0.081,0,0.162,0,0.243,0
					c6.035,0,10.974-4.897,10.974-10.946c0-6.047-4.924-10.986-10.974-10.986c-6.02,0-10.974,4.939-10.974,10.986
					c0,4.993,3.368,9.174,7.915,10.511l-24.014,101.958L373.492,40.352c5.329-0.784,9.39-5.344,9.39-10.865
					c0-6.035-4.884-10.959-10.946-10.959c-6.074,0-10.974,4.912-10.974,10.959c0,5.521,4.113,10.121,9.43,10.865l-11.554,112.159
					L334.851,50.755c4.614-1.298,8.024-5.494,8.024-10.511c0-6.047-4.924-10.986-10.959-10.986c-6.074,0-10.986,4.939-10.986,10.986
					c0,6.035,4.912,10.946,10.986,10.946c0.054,0,0.081,0,0.15,0l5.804,104.271l-36.205-77.51c3.545-1.826,5.939-5.494,5.939-9.769
					c0-6.02-4.884-10.946-10.974-10.946c-6.047,0-10.946,4.912-10.946,10.946C285.686,74.297,290.571,79.197,296.633,79.197z
					 M371.773,175.891c18.968,0,34.324,4.857,34.324,10.809c0,5.981-15.357,10.797-34.324,10.797
					c-18.967,0-34.339-4.803-34.339-10.797C337.437,180.749,352.806,175.891,371.773,175.891z"/>
				<g>
					<path fill="#FFFFFF" d="M250.701,250.073c-31.443,0-56.933,25.531-56.933,56.148c0,30.657,25.489,56.161,56.933,56.161
						c31.416,0,56.891-25.516,56.891-56.161C307.592,275.602,282.115,250.073,250.701,250.073z M274.349,338.663
						c-1.758,2.638-3.965,4.993-6.549,6.885c-4.208,3.368-9.009,5.317-14.11,5.494c-0.961,0.108-1.976,0.216-2.989,0.216
						c-1.055,0-2.043-0.108-3.043-0.216c-5.101-0.189-9.862-2.124-14.083-5.494c-2.584-1.895-4.803-4.236-6.549-6.885
						c-5.912-8.171-9.619-19.617-9.619-32.336c0-11.959,3.301-22.81,8.564-30.779c2.962-5.302,7.603-9.499,13.287-11.959
						c0.042-0.015,0.081-0.042,0.135-0.069c0.258-0.108,0.529-0.216,0.826-0.312c0.745-0.312,1.514-0.568,2.301-0.811
						c2.584-0.757,5.344-1.177,8.186-1.177c2.842,0,5.588,0.42,8.171,1.177c0.799,0.243,1.556,0.487,2.328,0.799
						c0.258,0.123,0.529,0.231,0.826,0.324c0.027,0.054,0.081,0.054,0.135,0.069c5.629,2.463,10.337,6.657,13.26,11.959
						c5.302,8.024,8.564,18.86,8.564,30.779C283.968,319.046,280.276,330.504,274.349,338.663z"/>
					<path fill="#FFFFFF" d="M420.331,317.922h-7.874v15.829c-0.243,9.484-7.97,17.114-17.507,17.114
						c-0.042,0-0.081-0.015-0.108-0.015v0.027h-24.137h-9.132v-88.938h15.248v-7.915h-15.248l0,0h-1.677h-38.058v7.915h15.261
						v88.944h-15.261v7.928h90.62h6.711h0.622h0.541v-0.027h0.081v-25.87h-0.081v-14.992H420.331z"/>
					<path fill="#FFFFFF" d="M540.582,254.05h-0.096h-0.529h-24.392h-78.607v7.928h14.951v88.956h-14.951v7.901v0.027h78.607h17.601
						h6.792h0.529h0.096h0.568v-25.841v-11.878h-7.982v12.488l0,0c-0.081,9.58-7.888,17.331-17.507,17.331c-0.054,0-0.069,0-0.096,0
						l0,0h-28.263l0,0H476.71h-0.312v-42.754v-1.407h7.943c0.081,0,0.135,0,0.204,0h4.425l0,0
						c7.09,0.081,12.839,5.846,12.839,12.935c0,0.123,0,0.216-0.015,0.285h0.015v4.127l0,0v1.664h7.21v-1.055v-17.956v-0.069v-6.426
						v-0.027v-17.966v-0.352h-7.198v5.086h-0.015c0,0.096,0.015,0.204,0.015,0.285c0,7.102-5.75,12.163-12.854,12.244l0,0h-4.626
						h-4.939h-3.004v-37.583h0.312h22.581c0.108,0,0.231,0,0.339,0h16.099c9.592,0.054,17.345,7.78,17.426,17.318l0,0v10.782h7.982
						v-10.16v-25.829v-0.042h-0.556v-0.012H540.582z"/>
					<path fill="#FFFFFF" d="M676.498,351.259c-7.603-0.189-9.39-2.53-15.261-9.295l-34.676-43.159l22.945-27.397v0.015
						c6.155-7.048,7.82-9.484,15.747-9.607h4.897h1.096v-7.657h-1.096h-22.539h-1.055H630.01h-1.055v7.657h1.055h8.225v0.027
						c0.027,0,0.027,0,0.027,0c2.003,0,3.611,1.583,3.611,3.572c0,0.799-0.258,1.502-0.664,2.097L620.86,291.73l-15.964-19.875
						l-3.328-4.221c-0.501-0.61-0.838-1.394-0.838-2.232c0-1.976,1.61-3.572,3.584-3.599h9.105v-7.657h-16.168h-23.636h-13.082
						v7.657h2.517c6.738,0.312,8.685,2.611,13.99,8.7l30.698,38.221L580.1,341.708v-0.069c-6.182,7.075-7.861,9.457-15.801,9.607
						h-4.83h-1.622v7.63h1.622h26.165h1.637h14.152h1.649v-7.63h-1.649h-9.484l0,0h-0.012c-1.976,0-3.611-1.595-3.611-3.626
						c0-0.838,0.312-1.61,0.826-2.22l24.543-29.319l20.389,25.423l3.112,3.869c0.487,0.637,0.826,1.406,0.826,2.247
						c0,1.989-1.622,3.626-3.626,3.626c0,0,0,0-0.027,0l0,0h-9.781v7.63h0.081l0,0h56.945v-7.63h-5.101v0.012h-0.005V351.259z"/>
				</g>
			</g>
		</g>
		<path fill="#FFFFFF" d="M175.813,350.76l-6.927-20.145c-3.26-8.943-5.548-13.002-10.607-17.616
			c-3.341-2.989-7.997-4.398-11.46-5.398c12.893-2.043,22.716-13.233,22.716-26.679c0-14.924-12.082-27.031-27.004-27.031
			c-0.15,0-0.312,0.027-0.514,0.027v-0.027h-40.642H76.874H62.139v7.888h14.735v89.037H61.896v7.928h39.263l0,0h15.275v-7.928
			h-15.059v-42.783h11.689c0.379,0.015,0.73,0.027,1.096,0.054h2.367c3.734,0.135,6.981,0.676,9.877,1.502
			c2.707,0.703,5.588,1.622,7.483,2.854c2.571,1.677,5.329,4.004,7.753,8.144c0.622,1.109,1.19,2.22,1.731,3.328
			c4.452,8.387,7.129,20.01,10.093,34.757h18.021v0.027h16.222v-7.943h-11.895v0.004H175.813z M126.959,300.078h-25.531V261.72
			h25.516c10.986,0.42,19.752,8.09,19.752,19.172C146.696,291.974,137.932,299.589,126.959,300.078z"/>
	</g>
	<g>
		<g>
			<g>
				<path fill="#A37E2C" d="M296.633,65.667c0.919,0,1.854-0.15,2.719-0.352l31.185,105.977h0.027
					c3.464,11.824,20.686,20.809,41.414,20.809c20.74,0,37.923-8.982,41.426-20.809h0.015l31.158-105.908
					c0.73,0.15,1.541,0.285,2.382,0.285c6.062,0,10.959-4.897,10.959-10.986c0-6.02-4.884-10.946-10.959-10.946
					c-6.035,0-10.959,4.912-10.959,10.946c0,4.398,2.544,8.132,6.251,9.889l-36.126,77.427l5.792-104.325c0.081,0,0.162,0,0.243,0
					c6.035,0,10.974-4.897,10.974-10.946c0-6.047-4.924-10.986-10.974-10.986c-6.02,0-10.974,4.939-10.974,10.986
					c0,4.993,3.368,9.174,7.915,10.511l-24.014,101.96L373.492,26.824c5.329-0.784,9.39-5.344,9.39-10.865
					C382.882,9.924,377.998,5,371.936,5c-6.074,0-10.974,4.912-10.974,10.959c0,5.521,4.113,10.121,9.43,10.865l-11.554,112.159
					L334.851,37.227c4.614-1.298,8.024-5.494,8.024-10.511c0-6.047-4.924-10.986-10.959-10.986c-6.074,0-10.986,4.939-10.986,10.986
					c0,6.035,4.912,10.946,10.986,10.946c0.054,0,0.081,0,0.15,0l5.804,104.268l-36.205-77.51c3.545-1.826,5.939-5.494,5.939-9.769
					c0-6.02-4.884-10.946-10.974-10.946c-6.047,0-10.946,4.912-10.946,10.946C285.686,60.767,290.571,65.667,296.633,65.667z
					 M371.773,162.361c18.968,0,34.324,4.857,34.324,10.809c0,5.981-15.357,10.797-34.324,10.797
					c-18.967,0-34.339-4.803-34.339-10.797C337.437,167.218,352.806,162.361,371.773,162.361z"/>
				<g>
					<path fill="#006039" d="M250.701,236.543c-31.443,0-56.933,25.531-56.933,56.148c0,30.657,25.489,56.161,56.933,56.161
						c31.416,0,56.891-25.516,56.891-56.161C307.592,262.074,282.115,236.543,250.701,236.543z M274.349,325.135
						c-1.758,2.638-3.965,4.993-6.549,6.885c-4.208,3.368-9.009,5.317-14.11,5.494c-0.961,0.108-1.976,0.216-2.989,0.216
						c-1.055,0-2.043-0.108-3.043-0.216c-5.101-0.189-9.862-2.124-14.083-5.494c-2.584-1.895-4.803-4.236-6.549-6.885
						c-5.912-8.171-9.619-19.617-9.619-32.336c0-11.959,3.301-22.81,8.564-30.779c2.962-5.302,7.603-9.499,13.287-11.959
						c0.042-0.015,0.081-0.042,0.135-0.069c0.258-0.108,0.529-0.216,0.826-0.312c0.745-0.312,1.514-0.568,2.301-0.811
						c2.584-0.757,5.344-1.177,8.186-1.177c2.842,0,5.588,0.42,8.171,1.177c0.799,0.243,1.556,0.487,2.328,0.799
						c0.258,0.123,0.529,0.231,0.826,0.324c0.027,0.054,0.081,0.054,0.135,0.069c5.629,2.463,10.337,6.657,13.26,11.959
						c5.302,8.024,8.564,18.86,8.564,30.779C283.968,305.516,280.276,316.976,274.349,325.135z"/>
					<path fill="#006039" d="M420.331,304.392h-7.874v15.829c-0.243,9.484-7.97,17.114-17.507,17.114
						c-0.042,0-0.081-0.015-0.108-0.015v0.027h-24.137h-9.132v-88.938h15.248v-7.915h-15.248l0,0h-1.677h-38.058v7.915h15.261
						v88.944h-15.261v7.928h90.62h6.711h0.622h0.541v-0.027h0.081v-25.87h-0.081v-14.992H420.331z"/>
					<path fill="#006039" d="M540.582,240.52h-0.096h-0.529h-24.392h-78.607v7.928h14.951v88.956h-14.951v7.901v0.027h78.607h17.601
						h6.792h0.529h0.096h0.568v-25.841v-11.878h-7.982v12.488l0,0c-0.081,9.58-7.888,17.331-17.507,17.331c-0.054,0-0.069,0-0.096,0
						l0,0h-28.263l0,0H476.71h-0.312V294.68v-1.406h7.943c0.081,0,0.135,0,0.204,0h4.425l0,0c7.09,0.081,12.839,5.846,12.839,12.935
						c0,0.123,0,0.216-0.015,0.285h0.015v4.127l0,0v1.664h7.21v-1.059v-17.952v-0.069v-6.426v-0.027v-17.967v-0.352h-7.198v5.086
						h-0.015c0,0.096,0.015,0.204,0.015,0.285c0,7.102-5.75,12.163-12.854,12.244l0,0h-4.626h-4.939h-3.004v-37.585h0.312h22.581
						c0.108,0,0.231,0,0.339,0h16.099c9.592,0.054,17.345,7.78,17.426,17.318l0,0v10.782h7.982v-10.16v-25.829v-0.042h-0.556v-0.012
						H540.582z"/>
					<path fill="#006039" d="M676.498,337.728c-7.603-0.189-9.39-2.53-15.261-9.295l-34.676-43.159l22.945-27.397v0.015
						c6.155-7.048,7.82-9.484,15.747-9.607h4.897h1.096v-7.657h-1.096h-22.539h-1.055H630.01h-1.055v7.657h1.055h8.225v0.027
						c0.027,0,0.027,0,0.027,0c2.003,0,3.611,1.583,3.611,3.572c0,0.799-0.258,1.502-0.664,2.097l-20.349,24.218l-15.964-19.875
						l-3.328-4.221c-0.501-0.61-0.838-1.394-0.838-2.232c0-1.976,1.61-3.572,3.584-3.599h9.105v-7.657h-16.168h-23.636h-13.082
						v7.657h2.517c6.738,0.312,8.685,2.611,13.99,8.7l30.698,38.221l-27.64,32.984v-0.069c-6.182,7.075-7.861,9.457-15.801,9.607
						h-4.83h-1.622v7.63h1.622h26.165h1.637h14.152h1.649v-7.63h-1.649h-9.484l0,0h-0.012c-1.976,0-3.611-1.595-3.611-3.626
						c0-0.838,0.312-1.61,0.826-2.22l24.543-29.318l20.389,25.423l3.112,3.869c0.487,0.637,0.826,1.406,0.826,2.247
						c0,1.989-1.622,3.626-3.626,3.626c0,0,0,0-0.027,0l0,0h-9.781v7.63h0.081l0,0h56.945v-7.63h-5.101v0.012L676.498,337.728
						L676.498,337.728z"/>
				</g>
			</g>
		</g>
		<path fill="#006039" d="M175.813,337.229l-6.927-20.145c-3.26-8.943-5.548-13.002-10.607-17.616
			c-3.341-2.989-7.997-4.398-11.46-5.398c12.893-2.043,22.716-13.233,22.716-26.679c0-14.924-12.082-27.031-27.004-27.031
			c-0.15,0-0.312,0.027-0.514,0.027v-0.026h-40.642H76.874H62.139v7.888h14.735v89.037H61.896v7.928h39.263l0,0h15.275v-7.93
			h-15.059v-42.781h11.689c0.379,0.015,0.73,0.027,1.096,0.054h2.367c3.734,0.135,6.981,0.676,9.877,1.502
			c2.707,0.703,5.588,1.622,7.483,2.854c2.571,1.677,5.329,4.004,7.753,8.144c0.622,1.109,1.19,2.22,1.731,3.328
			c4.452,8.387,7.129,20.01,10.093,34.757h18.021v0.027h16.222v-7.943h-11.895v0.003H175.813z M126.959,286.548h-25.531v-38.356
			h25.516c10.986,0.42,19.752,8.09,19.752,19.172S137.932,286.061,126.959,286.548z"/>
	</g>
</g>
</svg>
