<?xml version="1.0" encoding="UTF-8"?>
<!DOCTYPE svg PUBLIC "-//W3C//DTD SVG 1.1//EN" "http://www.w3.org/Graphics/SVG/1.1/DTD/svg11.dtd">
<!-- Creator: CorelDRAW -->
<svg xmlns="http://www.w3.org/2000/svg" xml:space="preserve" width="170mm" height="170mm" style="shape-rendering:geometricPrecision; text-rendering:geometricPrecision; image-rendering:optimizeQuality; fill-rule:evenodd; clip-rule:evenodd"
viewBox="0 0 170 170"
 xmlns:xlink="http://www.w3.org/1999/xlink">
 <defs>
  <style type="text/css">
   <![CDATA[
    .fil0 {fill:#DA2427}
    .fil1 {fill:white}
    .fil2 {fill:#DA2427;fill-rule:nonzero}
    .fil3 {fill:white;fill-rule:nonzero}
   ]]>
  </style>
 </defs>
 <g id="Ebene_x0020_1">
  <metadata id="CorelCorpID_0Corel-Layer"/>
  <g id="_54909696">
   <polygon id="_54808616" class="fil0" points="170,170 170,0 0,0 0,170 "/>
   <path id="_54807896" class="fil1" d="M107.826 113.256l43.1929 0.0031 0 -16.1939c0,-23.9099 -19.2697,-43.2971 -43.1727,-43.2971l-0.0202 -0.0004 0 59.4883z"/>
   <polygon id="_54807176" class="fil1" points="68.0928,72.4066 64.2088,72.4066 64.2088,57.102 58.5861,57.102 58.5861,53.8142 73.7155,53.8142 73.7155,57.102 68.0928,57.102 "/>
   <polygon id="_54806200" class="fil1" points="78.6082,64.0665 78.6082,72.4066 74.7241,72.4066 74.7241,53.8142 78.6082,53.8142 78.6082,60.8607 85.8543,60.8607 85.8543,53.8142 89.7415,53.8142 89.7415,72.4066 85.8543,72.4066 85.8543,64.0665 "/>
   <polygon id="_54805224" class="fil1" points="105.284,57.102 95.5129,57.102 95.5129,61.0135 104.117,61.0135 104.117,64.3013 95.5129,64.3013 95.5129,69.1187 105.306,69.1187 105.306,72.4066 91.8946,72.4066 91.8946,53.8142 105.284,53.8142 "/>
   <polygon id="_54804504" class="fil1" points="32.2787,74.2436 35.91,74.2436 35.91,92.8346 32.0228,92.8346 24.4367,79.5781 24.3815,79.5781 24.3815,92.8346 20.7569,92.8346 20.7569,74.2436 24.8449,74.2436 32.2267,87.1896 32.2787,87.1896 "/>
   <path id="_54803152" class="fil1" d="M46.7494 90.0387c2.0961,0 5.0441,-1.2948 5.0441,-6.4998 0,-5.2019 -2.9484,-6.5017 -5.0441,-6.5017 -2.0962,0 -5.0541,1.2998 -5.0541,6.5017 0.0005,5.205 2.9579,6.5003 5.0541,6.4998zm0 -16.2889c2.4582,0 8.9277,1.0632 8.9277,9.7891 0.0005,8.7244 -6.47,9.7881 -8.9277,9.7881 -2.4645,0 -8.9381,-1.0637 -8.9381,-9.7881 0.0004,-8.7259 6.4736,-9.7891 8.9381,-9.7891z"/>
   <polygon id="_54865864" class="fil1" points="83.2495,92.8346 79.3623,92.8346 79.3623,77.5296 73.7428,77.5296 73.7428,74.2436 88.8623,74.2436 88.8623,77.5296 83.2495,77.5296 "/>
   <polygon id="_54865008" class="fil1" points="94.1408,84.5004 94.1408,92.8346 90.2599,92.8346 90.2599,74.2436 94.1408,74.2436 94.1408,81.2838 101.39,81.2838 101.39,74.2436 105.284,74.2436 105.284,92.8346 101.39,92.8346 101.39,84.5004 "/>
   <polygon id="_54864288" class="fil1" points="49.843,113.262 45.9589,113.262 45.9589,94.6698 59.1884,94.6698 59.1884,97.9608 49.843,97.9608 49.843,102.155 58.0283,102.155 58.0283,105.446 49.843,105.446 "/>
   <path id="_54863304" class="fil1" d="M63.2889 106.22l4.7327 0 -2.3027 -7.3547 -0.0493 0 -2.3807 7.3547zm-2.335 7.0421l-4.0911 0 6.6331 -18.5924 4.48 0 6.5475 18.5924 -4.2237 0 -1.1906 -3.8327 -6.8571 0 -1.2981 3.8327z"/>
   <path id="_54862224" class="fil1" d="M86.4534 100.756c-0.3047,-1.1129 -0.9074,-3.2107 -4.1211,-3.2107 -1.8623,0 -4.6095,1.2425 -4.6095,6.4972 0,3.3429 1.3214,6.3485 4.6095,6.3485 2.1549,0 3.6546,-1.2196 4.1211,-3.4962l3.8809 0c-0.7747,4.0379 -3.4118,6.8597 -8.0764,6.8597 -4.946,0 -8.4967,-3.3358 -8.4967,-9.7617 0,-6.4986 3.7546,-9.8142 8.5518,-9.8142 5.5662,0 7.8138,3.8345 8.0209,6.5774l-3.8805 0z"/>
   <polygon id="_55197680" class="fil1" points="105.284,97.9608 95.5129,97.9608 95.5129,101.867 104.117,101.867 104.117,105.157 95.5129,105.157 95.5129,109.974 105.306,109.974 105.306,113.262 91.8946,113.262 91.8946,94.6698 105.284,94.6698 "/>
   <path id="_55197592" class="fil1" d="M65.9321 82.3999c2.0156,0 2.9969,-0.6994 2.9969,-2.5346 0,-0.9786 -0.4409,-2.4249 -2.7141,-2.4249l-4.8309 0 0 4.9595 4.5481 0zm-8.3497 -8.1657l9.3835 0c4.9335,0 5.8341,3.6413 5.8341,5.2484 0.0005,2.0373 -1.0337,3.7955 -2.8673,4.416 1.5258,0.6717 2.3552,1.238 2.3552,4.7001 0.0004,2.7139 0,3.385 0.8254,3.6969l0.0004 0.4879 -4.2954 0c-0.2559,-0.8768 -0.4078,-1.8352 -0.4078,-3.7448 0,-2.5315 -0.1519,-3.5145 -3.0255,-3.5145l-4.001 0 0 7.2593 -3.8016 0 0 -18.5493z"/>
   <g>
    <path id="_55196904" class="fil2" d="M107.826 72.89l0 0.7868 -0.3934 0 0 -0.7868 0.3934 0zm1.9442 0.7915l0 -0.0016 -1.9442 -0.0031 0 -0.7868 1.9442 0.0031 0 0.7884zm23.5531 22.7725l-0.7868 0 0 0 -0.0301 -1.1737 -0.088 -1.1564 -0.1457 -1.1394 -0.199 -1.1207 -0.254 -1.1024 -0.3074 -1.0808 -0.3579 -1.058 -0.407 -1.0335 -0.456 -1.0077 -0.5022 -0.982 -0.5484 -0.9547 -0.5931 -0.9231 -0.6348 -0.8929 -0.6752 -0.8613 -0.7155 -0.8251 -0.7546 -0.7923 -0.7904 -0.7532 -0.8249 -0.7159 -0.861 -0.677 -0.8925 -0.6335 -0.9227 -0.5935 -0.9544 -0.5485 -0.9817 -0.5025 -1.0074 -0.4561 -1.0347 -0.4072 -1.0577 -0.3581 -1.0789 -0.3075 -1.102 -0.2541 -1.1205 -0.1991 -1.1391 -0.1458 -1.1561 -0.088 -1.1734 -0.0285 0 -0.79 1.2104 0.0317 1.1963 0.091 1.1791 0.149 1.1607 0.2083 1.139 0.2633 1.1191 0.3169 1.0947 0.3703 1.0687 0.4226 1.0444 0.4717 1.0155 0.5209 0.9854 0.5671 0.9565 0.6119 0.9235 0.6583 0.8888 0.6986 0.8557 0.7405 0.8182 0.781 0.7792 0.8169 0.7403 0.8561 0.6998 0.8891 0.6564 0.9237 0.6117 0.9569 0.5668 0.9857 0.5208 1.0158 0.4714 1.0449 0.4224 1.0705 0.3703 1.095 0.3166 1.1178 0.2632 1.1394 0.2084 1.1609 0.1487 1.1794 0.091 1.1966 0.0301 1.2107 0 0zm-0.7868 0l0 0 0 0 0 0zm0.0004 16.8051l-0.0004 -16.8051 0.7868 0 0.0004 16.8051 -0.7868 0zm0 0l0.7868 0 0 0.3934 -0.7868 0 0 -0.3934z"/>
   </g>
   <g>
    <path class="fil2" d="M117.28 113.256l0.7868 0 0 0.3934 -0.7868 0 0 -0.3934zm-0.0048 -13.0137l0.7884 0 0.0032 13.0137 -0.7868 0 -0.0032 -13.0137 -0.0016 0zm-6.1466 -6.1455l0 -0.7868 0 0 0.3553 0.0085 0.3525 0.0268 0.3476 0.0432 0.3423 0.0621 0.3351 0.0777 0.3291 0.0929 0.3241 0.1089 0.3141 0.1249 0.3083 0.1388 0.299 0.1537 0.2894 0.1668 0.2823 0.1794 0.272 0.1931 0.261 0.2066 0.2527 0.2179 0.241 0.229 0.2288 0.2409 0.218 0.2528 0.2064 0.261 0.1931 0.2718 0.1794 0.2822 0.1666 0.2893 0.1537 0.2988 0.1387 0.3083 0.1247 0.3137 0.109 0.3223 0.0927 0.3303 0.0776 0.3348 0.0622 0.3419 0.0431 0.3471 0.0267 0.352 0.0101 0.3548 -0.79 0 -0.0069 -0.3178 -0.0237 -0.3118 -0.0401 -0.3071 -0.0528 -0.3017 -0.0684 -0.2978 -0.0835 -0.2901 -0.0966 -0.2853 -0.1093 -0.2799 -0.1233 -0.2711 -0.1351 -0.265 -0.1482 -0.2583 -0.1608 -0.2484 -0.1715 -0.241 -0.1818 -0.2332 -0.1932 -0.2218 -0.2042 -0.2133 -0.2132 -0.2042 -0.2219 -0.1933 -0.2332 -0.1818 -0.241 -0.1715 -0.2485 -0.161 -0.2584 -0.1482 -0.2652 -0.1353 -0.2713 -0.1232 -0.2801 -0.1095 -0.2839 -0.0967 -0.2921 -0.0835 -0.2981 -0.0685 -0.3021 -0.0529 -0.3076 -0.04 -0.3123 -0.0238 -0.3183 -0.0085 0 0zm0 -0.7868l0 0 0 0 0 0zm-3.3033 0.0108l3.3033 -0.0108 0 0.7868 -3.3033 0.0108 0 -0.7868zm0 0l0 0.7868 -0.3934 0 0 -0.7868 0.3934 0z"/>
   </g>
   <g>
    <path class="fil3" d="M39.4952 109.32l0.1974 0.1974 0 2.3926 -0.3948 0 0 -2.3926 0.1974 -0.1974zm-0.1974 0.1974l0 -0.1974 0.1974 0 -0.1974 0.1974zm1.2438 0.1974l0 0 -1.0464 0 0 -0.3948 1.0464 0 0 0.3948zm0 -0.3948l0 0 0 0 0 0zm1.0415 0.8305l-0.3948 0 0 0 0.0002 -0.0294 -0.0019 -0.0277 -0.0025 -0.026 -0.0031 -0.0258 -0.0045 -0.0233 -0.005 -0.0225 -0.0059 -0.0205 -0.0066 -0.0189 -0.0073 -0.0171 -0.009 -0.0176 -0.009 -0.0157 -0.0091 -0.0139 -0.0109 -0.0144 -0.0125 -0.0141 -0.0113 -0.0113 -0.0154 -0.0134 -0.0149 -0.0122 -0.0183 -0.0126 -0.0195 -0.0114 -0.0223 -0.0117 -0.0233 -0.0106 -0.0264 -0.0101 -0.0291 -0.0096 -0.0311 -0.0091 -0.0334 -0.0078 -0.0379 -0.0081 -0.0393 -0.0059 -0.0416 -0.0055 -0.0446 -0.004 -0.0471 -0.0035 -0.0508 -0.0021 -0.0533 0.0001 0 -0.3948 0.0625 0.0015 0.0602 0.0021 0.0593 0.0035 0.057 0.0056 0.0554 0.0069 0.0533 0.0091 0.0501 0.0097 0.0504 0.0124 0.0481 0.0137 0.0461 0.0158 0.0448 0.0177 0.0435 0.0198 0.0407 0.0211 0.0395 0.0236 0.0369 0.025 0.0365 0.0276 0.0324 0.0288 0.0329 0.0329 0.0279 0.0327 0.0263 0.0344 0.0245 0.0371 0.0214 0.0373 0.0182 0.0376 0.0165 0.0401 0.0144 0.0405 0.0119 0.0407 0.0098 0.0409 0.0075 0.0419 0.0061 0.0412 0.0041 0.043 0.0019 0.0431 0.0014 0.0432 0 0zm0 0l0 0 0 0 0 0zm-0.9452 0.8517l0 -0.3948 -0.0039 0.0008 0.0347 -0.0013 0.0325 -0.0024 0.0334 -0.0026 0.0312 -0.0037 0.0296 -0.0047 0.0296 -0.0051 0.0281 -0.0062 0.0265 -0.0074 0.0255 -0.0077 0.0246 -0.0082 0.0237 -0.0101 0.021 -0.009 0.0207 -0.0104 0.0197 -0.0116 0.0185 -0.0121 0.0156 -0.0118 0.0169 -0.0133 0.014 -0.0131 0.0143 -0.0144 0.0121 -0.0151 0.0114 -0.0158 0.0116 -0.0164 0.01 -0.0186 0.0093 -0.0187 0.0085 -0.021 0.0078 -0.0232 0.0067 -0.0232 0.0059 -0.0265 0.0048 -0.028 0.0039 -0.0295 0.0021 -0.0313 0.0001 -0.0353 0.3948 0 -0.0017 0.0507 -0.0037 0.0513 -0.0053 0.0497 -0.008 0.048 -0.0105 0.0465 -0.0129 0.0464 -0.0154 0.0432 -0.0177 0.0426 -0.0201 0.0417 -0.0224 0.0388 -0.024 0.038 -0.0268 0.0358 -0.0291 0.0335 -0.0297 0.0314 -0.0324 0.0301 -0.0323 0.0271 -0.0358 0.0258 -0.0355 0.0229 -0.0365 0.0208 -0.0377 0.0196 -0.0396 0.0182 -0.0391 0.0149 -0.04 0.0142 -0.0409 0.0125 -0.0419 0.0104 -0.0419 0.0092 -0.042 0.0083 -0.0436 0.0063 -0.0434 0.0051 -0.0428 0.0042 -0.0447 0.0024 -0.0439 0.0013 -0.0039 0.0008zm0.0039 -0.0008l-0.0039 0.0008 -0.0336 0 0.0375 -0.0008zm-1.1466 -0.394l1.1427 0 0 0.3948 -1.1427 0 0 -0.3948zm1.6842 1.3834l-0.6984 -1.0707 0.33 -0.2144 0.6984 1.0707 -0.33 0.2144z"/>
   </g>
   <g>
    <path class="fil3" d="M37.9361 110.715l-0.3948 0 0 0 0.0041 -0.1403 0.0107 -0.1394 0.0169 -0.1374 0.0247 -0.1354 0.0308 -0.1325 0.0367 -0.1301 0.0432 -0.1276 0.0494 -0.1249 0.0549 -0.1213 0.0609 -0.1191 0.066 -0.1144 0.0708 -0.1117 0.0765 -0.1077 0.0818 -0.1031 0.0863 -0.1001 0.0905 -0.0954 0.0954 -0.0905 0.0994 -0.0863 0.1039 -0.0817 0.1076 -0.0764 0.1118 -0.071 0.1144 -0.0667 0.1191 -0.0601 0.1213 -0.0549 0.1248 -0.0494 0.1277 -0.0432 0.13 -0.0366 0.1325 -0.0307 0.1353 -0.0248 0.1374 -0.0169 0.1393 -0.0107 0.1403 -0.0033 0 0.3932 -0.1217 0.0033 -0.1193 0.0091 -0.1174 0.0155 -0.1153 0.02 -0.1139 0.0261 -0.1116 0.032 -0.1091 0.037 -0.1064 0.0418 -0.1043 0.0471 -0.1005 0.0525 -0.099 0.0559 -0.0948 0.0616 -0.0922 0.0656 -0.0885 0.0695 -0.0856 0.0739 -0.0814 0.0781 -0.0783 0.0816 -0.0739 0.0847 -0.0694 0.0893 -0.0657 0.0921 -0.0616 0.0949 -0.0568 0.099 -0.0517 0.1005 -0.0471 0.1043 -0.0418 0.1065 -0.037 0.109 -0.0321 0.1117 -0.026 0.1139 -0.0201 0.1154 -0.0155 0.1174 -0.0091 0.1194 -0.0025 0.1217 0 0zm0 0l0 0 0 0 0 0zm2.349 2.3493l0 0.3948 0 -0.0008 -0.1402 -0.0033 -0.1393 -0.0106 -0.1373 -0.0169 -0.1353 -0.0247 -0.1325 -0.0307 -0.1308 -0.0366 -0.1267 -0.043 -0.1249 -0.0493 -0.1212 -0.0549 -0.1191 -0.0599 -0.1144 -0.0666 -0.1118 -0.0709 -0.1075 -0.077 -0.1031 -0.0809 -0.1002 -0.0862 -0.0946 -0.0905 -0.0913 -0.0952 -0.0862 -0.1001 -0.0811 -0.1031 -0.0772 -0.1076 -0.0709 -0.1117 -0.0667 -0.1144 -0.0601 -0.1191 -0.0549 -0.1213 -0.0494 -0.1249 -0.0432 -0.1278 -0.0367 -0.1301 -0.0308 -0.1334 -0.0247 -0.1348 -0.0169 -0.1377 -0.0107 -0.1395 -0.0041 -0.1406 0.3948 0 0.0025 0.122 0.0091 0.1195 0.0155 0.1177 0.0201 0.1164 0.026 0.1132 0.0321 0.1117 0.037 0.1092 0.0418 0.1065 0.0471 0.1043 0.0525 0.1005 0.0559 0.099 0.0617 0.0949 0.0648 0.092 0.0703 0.0893 0.0738 0.0847 0.0775 0.0814 0.0822 0.0781 0.0848 0.0738 0.0893 0.0701 0.0921 0.0648 0.0948 0.0615 0.099 0.0558 0.1005 0.0523 0.1042 0.0471 0.1065 0.0417 0.1097 0.0368 0.1108 0.032 0.1139 0.0261 0.1153 0.0199 0.1173 0.0155 0.1193 0.009 0.1216 0.0033 0 -0.0008zm0 0.0008l0 -0.0004 0 -0.0004 0 0.0008zm2.3496 -2.3501l0.3948 0 0 0 -0.0041 0.1406 -0.0106 0.1395 -0.0168 0.1377 -0.0246 0.1348 -0.0298 0.1334 -0.0373 0.1301 -0.043 0.1278 -0.0484 0.1249 -0.0554 0.1213 -0.0599 0.1191 -0.0665 0.1144 -0.0706 0.111 -0.0762 0.1083 -0.0816 0.1031 -0.0861 0.1001 -0.0902 0.0952 -0.0953 0.0905 -0.0992 0.0862 -0.1038 0.0809 -0.1075 0.077 -0.1118 0.0709 -0.1144 0.0666 -0.1192 0.0599 -0.1214 0.0549 -0.125 0.0493 -0.1279 0.043 -0.1303 0.0366 -0.1335 0.0307 -0.1352 0.0247 -0.1379 0.0169 -0.1399 0.0106 -0.141 0.0041 0 -0.3948 0.1224 -0.0025 0.1199 -0.009 0.1179 -0.0155 0.1166 -0.0199 0.1135 -0.0261 0.1119 -0.032 0.1093 -0.0368 0.1066 -0.0417 0.1044 -0.0471 0.1006 -0.0523 0.099 -0.0558 0.0948 -0.0615 0.0921 -0.0648 0.0884 -0.0701 0.0854 -0.0738 0.0813 -0.0781 0.078 -0.0814 0.0737 -0.0847 0.0692 -0.0893 0.0654 -0.0913 0.0614 -0.0956 0.0557 -0.099 0.0523 -0.1005 0.046 -0.1043 0.0424 -0.1065 0.0368 -0.1092 0.0311 -0.1117 0.0266 -0.1132 0.02 -0.1164 0.0154 -0.1177 0.009 -0.1195 0.0025 -0.122 0 0zm0 0l0 0 0 0 0 0zm-2.349 -2.3504l0 -0.3932 0 -0.0008 0.1409 0.0041 0.1398 0.0107 0.1379 0.0169 0.135 0.0248 0.1335 0.0307 0.1303 0.0366 0.1278 0.0432 0.125 0.0494 0.1214 0.0549 0.1191 0.0601 0.1144 0.0667 0.1118 0.071 0.1074 0.0771 0.1038 0.081 0.0992 0.0863 0.0953 0.0912 0.0903 0.0955 0.086 0.0993 0.0816 0.1039 0.0762 0.1069 0.0707 0.1117 0.0665 0.1152 0.0598 0.1183 0.0547 0.1213 0.0492 0.1249 0.043 0.1276 0.0372 0.1301 0.0299 0.1325 0.0246 0.1354 0.0168 0.1374 0.0106 0.1394 0.0041 0.1403 -0.3948 0 -0.0025 -0.1217 -0.009 -0.1194 -0.0154 -0.1174 -0.02 -0.1154 -0.0267 -0.1139 -0.031 -0.1117 -0.0368 -0.109 -0.0416 -0.1065 -0.0469 -0.1043 -0.0522 -0.1013 -0.0557 -0.0982 -0.0615 -0.0949 -0.0654 -0.0929 -0.0692 -0.0885 -0.0736 -0.0855 -0.0781 -0.0815 -0.0813 -0.0774 -0.0854 -0.0739 -0.0884 -0.0702 -0.092 -0.0649 -0.0948 -0.0616 -0.099 -0.0559 -0.1005 -0.0525 -0.1044 -0.0471 -0.1066 -0.0418 -0.1092 -0.037 -0.1119 -0.032 -0.1135 -0.0261 -0.1164 -0.02 -0.1179 -0.0155 -0.1198 -0.0091 -0.1223 -0.0025 0 -0.0008zm0 0.0008l0 -0.0004 0 -0.0004 0 0.0008z"/>
   </g>
  </g>
 </g>
</svg>
